<svg width="1240" height="297" viewBox="0 0 1240 297" fill="none" xmlns="http://www.w3.org/2000/svg">
<path d="M259.077 289.124L230.603 229.811C285.248 216.605 313.342 155.548 285.167 105.672C271.742 81.8866 247.615 66.1964 220.383 63.1506H30.739L0 0.209755L231.985 0.169678C320.435 7.56387 383.336 89.9621 365.161 177.67C354.14 230.792 311.939 276.079 259.077 289.144V289.124Z" fill="url(#paint0_linear_933_7368)"/>
<path d="M112.633 231.573H201.324L231.482 294.514H5.30737L111.772 72.0071L151.468 151.48C139.906 178.772 124.677 204.441 112.633 231.553V231.573Z" fill="url(#paint1_linear_933_7368)"/>
<path d="M425.754 129.615V0.187012H495.388C534.483 0.187012 561.755 45.6743 552.337 81.9239C546.907 102.884 521.738 129.615 498.935 129.615H425.754ZM456.794 103.906H491.821C504.625 103.906 519.915 87.675 523.061 75.732C528.992 53.1086 512.701 25.8964 488.274 25.8964H456.794V103.906Z" fill="url(#paint2_linear_933_7368)"/>
<path d="M625.138 0.451043C672.849 -4.4183 721.583 31.2502 706.474 82.6288C690.162 138.095 606.362 146.111 574.04 99.7617C544.663 57.6408 577.466 5.32039 625.138 0.451043ZM630.468 26.1604C574.581 32.0918 582.436 110.122 642.511 103.809C697.156 98.0584 689.241 19.9284 630.468 26.1604Z" fill="url(#paint3_linear_933_7368)"/>
<path d="M1014.52 0.448647C1050.19 -3.17832 1088.93 15.2771 1096.76 52.4886C1112.19 125.729 1003.36 158.893 962.545 98.8776C933.77 56.5764 967.314 5.25788 1014.52 0.468686V0.448647ZM1019.85 26.158C963.066 31.7888 971.722 110.54 1031.92 103.807C1086.26 97.7354 1077.97 20.3869 1019.85 26.158Z" fill="url(#paint4_linear_933_7368)"/>
<path d="M893.894 166.226C935.254 164.903 976.914 197.065 969.219 241.49C960.001 294.692 888.764 312.527 848.928 280.686C796.868 239.066 832.436 168.19 893.914 166.226H893.894ZM890.347 192.797C835.422 199.049 844.479 276.217 902.411 270.446C958.679 264.855 950.563 185.944 890.347 192.797Z" fill="url(#paint5_linear_933_7368)"/>
<path d="M909.164 81.7427H888.765L900.287 59.5801H942.869V103.464C942.869 104.246 933.13 113.223 931.628 114.385C882.133 153.28 794.665 114.866 812.92 48.9397C824.241 8.08127 873.476 -8.95143 911.389 4.59457C915.617 6.09746 938.18 17.6797 937.479 21.7876C937.258 23.03 920.927 39.1409 919.785 39.6619C919.023 40.0025 918.663 40.223 917.761 39.9825C917.14 39.8222 909.966 33.5902 907.662 32.2677C878.786 15.8963 836.204 33.7706 840.092 69.6595C843.258 98.9758 880.69 111.62 905.057 99.3565C912.351 95.6895 908.102 88.6159 909.164 81.7427Z" fill="url(#paint6_linear_933_7368)"/>
<path d="M608.467 166.851V248.848C608.467 250.171 611.412 256.684 612.334 258.287C621.532 274.518 654.796 276.441 660.547 255.682C661.228 253.197 662.59 246.644 662.59 244.42V166.851H692.748V250.632C692.748 257.806 686.597 273.195 682.088 278.986C662.731 303.774 607.825 301.83 588.608 277.604C583.859 271.612 577.447 257.245 577.447 249.75V166.871H608.487L608.467 166.851Z" fill="url(#paint7_linear_933_7368)"/>
<path d="M1122.94 0.187012L1164.18 83.507L1205.42 0.187012H1240L1178.36 128.734C1175.74 131.078 1156.48 128.734 1151.71 129.676L1089.23 0.187012H1122.94Z" fill="url(#paint8_linear_933_7368)"/>
<path d="M577.424 296.277H542.838L501.599 212.957L460.36 296.277H426.655L489.155 166.789C493.924 167.73 513.201 165.386 515.806 167.73L577.445 296.277H577.424Z" fill="url(#paint9_linear_933_7368)"/>
<path d="M826.666 166.851L814.242 192.56H778.754V294.957C778.754 294.957 777.512 296.28 777.432 296.28H749.057C749.057 296.28 747.735 295.037 747.735 294.957V192.56H712.247L699.823 166.851H826.666Z" fill="url(#paint10_linear_933_7368)"/>
<path d="M748.618 0.187012V103.906H804.946C809.355 112.242 815.326 120.558 817.811 129.615H717.578V0.187012H748.618Z" fill="url(#paint11_linear_933_7368)"/>
<defs>
<linearGradient id="paint0_linear_933_7368" x1="0" y1="144.657" x2="368.3" y2="144.657" gradientUnits="userSpaceOnUse">
<stop/>
<stop offset="1" stop-color="#EE1414"/>
</linearGradient>
<linearGradient id="paint1_linear_933_7368" x1="5.30737" y1="183.261" x2="231.482" y2="183.261" gradientUnits="userSpaceOnUse">
<stop/>
<stop offset="1" stop-color="#2A455A"/>
</linearGradient>
<linearGradient id="paint2_linear_933_7368" x1="425.754" y1="64.9013" x2="554.207" y2="64.9013" gradientUnits="userSpaceOnUse">
<stop/>
<stop offset="1" stop-color="#2A455A"/>
</linearGradient>
<linearGradient id="paint3_linear_933_7368" x1="562.904" y1="64.9818" x2="709.274" y2="64.9818" gradientUnits="userSpaceOnUse">
<stop/>
<stop offset="1" stop-color="#2A455A"/>
</linearGradient>
<linearGradient id="paint4_linear_933_7368" x1="951.882" y1="64.972" x2="1098.25" y2="64.972" gradientUnits="userSpaceOnUse">
<stop/>
<stop offset="1" stop-color="#2A455A"/>
</linearGradient>
<linearGradient id="paint5_linear_933_7368" x1="823.789" y1="231.343" x2="970.144" y2="231.343" gradientUnits="userSpaceOnUse">
<stop/>
<stop offset="1" stop-color="#2A455A"/>
</linearGradient>
<linearGradient id="paint6_linear_933_7368" x1="810.454" y1="64.9939" x2="942.869" y2="64.9939" gradientUnits="userSpaceOnUse">
<stop/>
<stop offset="1" stop-color="#2A455A"/>
</linearGradient>
<linearGradient id="paint7_linear_933_7368" x1="577.447" y1="231.774" x2="692.748" y2="231.774" gradientUnits="userSpaceOnUse">
<stop/>
<stop offset="1" stop-color="#2A455A"/>
</linearGradient>
<linearGradient id="paint8_linear_933_7368" x1="1089.23" y1="65.0009" x2="1240" y2="65.0009" gradientUnits="userSpaceOnUse">
<stop/>
<stop offset="1" stop-color="#2A455A"/>
</linearGradient>
<linearGradient id="paint9_linear_933_7368" x1="426.655" y1="231.463" x2="577.445" y2="231.463" gradientUnits="userSpaceOnUse">
<stop/>
<stop offset="1" stop-color="#2A455A"/>
</linearGradient>
<linearGradient id="paint10_linear_933_7368" x1="699.823" y1="231.565" x2="826.666" y2="231.565" gradientUnits="userSpaceOnUse">
<stop/>
<stop offset="1" stop-color="#2A455A"/>
</linearGradient>
<linearGradient id="paint11_linear_933_7368" x1="717.578" y1="64.9013" x2="817.811" y2="64.9013" gradientUnits="userSpaceOnUse">
<stop/>
<stop offset="1" stop-color="#2A455A"/>
</linearGradient>
</defs>
</svg>
