<svg width="80" height="26" viewBox="0 0 80 26" fill="none" xmlns="http://www.w3.org/2000/svg">
<g opacity="0.4" clip-path="url(#clip0_1449_3104)">
<path d="M67 6H77L76 8H72.5L73.5 11H77L79 13.5L79.4023 18.5L72.9697 20.4102C72.6733 17.3734 70.1146 15 67 15C63.7431 15 61.0939 17.595 61.0039 20.8301L56 20.8906L22 21.5L19.9717 21.5625C19.9889 21.3772 20 21.1898 20 21C20 17.6863 17.3137 15 14 15C10.6863 15 8 17.6863 8 21C8 21.3179 8.02464 21.63 8.07227 21.9346L6 22L1 21V15L6 14.5L5.5 12L1 11.5V11L23 8L33.5 1L55 0L67 6ZM34.5 2.5L26.5 7.5L43 7L44 2L34.5 2.5ZM46 2L45 7L63.5 6.5L54.5 1.5L46 2Z" fill="#D9D9D9"/>
<path d="M14 16C16.7614 16 19 18.2386 19 21C19 23.7614 16.7614 26 14 26C11.2386 26 9 23.7614 9 21C9 18.2386 11.2386 16 14 16ZM14 18C12.3431 18 11 19.3431 11 21C11 22.6569 12.3431 24 14 24C15.6569 24 17 22.6569 17 21C17 19.3431 15.6569 18 14 18Z" fill="#D9D9D9"/>
<path d="M67 16C69.7614 16 72 18.2386 72 21C72 23.7614 69.7614 26 67 26C64.2386 26 62 23.7614 62 21C62 18.2386 64.2386 16 67 16ZM67 18C65.3431 18 64 19.3431 64 21C64 22.6569 65.3431 24 67 24C68.6569 24 70 22.6569 70 21C70 19.3431 68.6569 18 67 18Z" fill="#D9D9D9"/>
<path d="M10.818 17.818L13.831 19.9333L16.0429 16.9904L14.9622 20.5097L18.4445 21.7039L14.7636 21.7636L14.7039 25.4446L13.5096 21.9623L9.99042 23.0429L12.9332 20.831L10.818 17.818Z" fill="#D9D9D9"/>
<path d="M65.8353 16.6533L67.387 19.9917L70.774 18.5491L68.0785 21.0565L70.4972 23.8319L67.2795 22.0432L65.3873 25.2011L66.0942 21.5882L62.5062 20.7645L66.1607 20.3203L65.8353 16.6533Z" fill="#D9D9D9"/>
<circle cx="14" cy="21" r="1.5" fill="#D9D9D9"/>
<circle cx="67" cy="21" r="1.5" fill="#D9D9D9"/>
</g>
<defs>
<clipPath id="clip0_1449_3104">
<rect width="80" height="26" fill="white"/>
</clipPath>
</defs>
</svg>
