<svg width="68" height="23" viewBox="0 0 68 23" fill="none" xmlns="http://www.w3.org/2000/svg">
<path d="M12 12.5C14.7614 12.5 17 14.7386 17 17.5C17 20.2614 14.7614 22.5 12 22.5C9.23858 22.5 7 20.2614 7 17.5C7 14.7386 9.23858 12.5 12 12.5ZM55.5 12.5C58.2614 12.5 60.5 14.7386 60.5 17.5C60.5 20.2614 58.2614 22.5 55.5 22.5C52.7386 22.5 50.5 20.2614 50.5 17.5C50.5 14.7386 52.7386 12.5 55.5 12.5ZM9.45996 19.0908C9.99055 19.9362 10.9282 20.5 12 20.5C12.069 20.5 12.1373 20.4958 12.2051 20.4912L11.6816 18.9658C11.4237 18.9101 11.1917 18.7868 11.002 18.6172L9.45996 19.0908ZM56.2441 18.8008C56.026 18.9259 55.7742 18.9982 55.5049 18.999L54.6768 20.3828C54.9386 20.4574 55.2142 20.5 55.5 20.5C56.3458 20.5 57.108 20.1481 57.6533 19.585L56.2441 18.8008ZM13.2949 18.2549C13.1644 18.4783 12.9783 18.6644 12.7549 18.7949L12.7285 20.4072C13.7994 20.1397 14.6397 19.2994 14.9072 18.2285L13.2949 18.2549ZM52.502 17.6074C52.542 18.7449 53.2169 19.7179 54.1816 20.1914L54.4912 18.6074C54.3024 18.4353 54.1568 18.217 54.0752 17.9688L52.502 17.6074ZM56.9678 17.1924C56.9885 17.2917 57 17.3945 57 17.5C57 17.6598 56.974 17.8135 56.9277 17.958L57.9883 19.1748C58.3109 18.6964 58.5 18.1204 58.5 17.5C58.5 16.9919 58.3723 16.5141 58.1494 16.0947L56.9678 17.1924ZM9.7002 15.5742C9.26336 16.0953 9 16.7668 9 17.5C9 17.8962 9.07824 18.2739 9.21777 18.6201L10.5068 17.6504C10.5019 17.6009 10.5 17.5507 10.5 17.5C10.5 17.2849 10.5454 17.0804 10.627 16.8955L9.7002 15.5742ZM59.5 0.5L61.5 1.5L60 2L64 6.5L62.5 7.5V9L66.5 9.57227L68 17L62.5 17.1992L61.4922 17.2129C61.3423 14.0325 58.7174 11.5 55.5 11.5C52.2277 11.5 49.569 14.1195 49.5029 17.376L48.5 17.3906L21 18L17.9688 18.1006C17.9884 17.903 18 17.7028 18 17.5C18 14.1863 15.3137 11.5 12 11.5C8.68629 11.5 6 14.1863 6 17.5C6 17.8398 6.02972 18.1727 6.08398 18.4971L6 18.5H0L1.5 12.5L4.5 12L6.5 10H2L19 6.5L33.5 0L59.5 0.5ZM13.1172 16.502C13.2868 16.6917 13.4101 16.9237 13.4658 17.1816L14.9912 17.7051C14.9958 17.6373 15 17.569 15 17.5C15 16.4282 14.4362 15.4906 13.5908 14.96L13.1172 16.502ZM54.4707 14.6836C53.448 15.0574 52.685 15.9699 52.5293 17.0791L54.1328 16.8838C54.2397 16.647 54.4061 16.4432 54.6133 16.291L54.4707 14.6836ZM55.5 14.5C55.3231 14.5 55.1499 14.5156 54.9814 14.5449L55.6621 16.0088C55.9267 16.0372 56.1699 16.1354 56.375 16.2832L57.8594 15.6514C57.3102 14.9514 56.4587 14.5 55.5 14.5ZM12 14.5C11.2668 14.5 10.5953 14.7634 10.0742 15.2002L11.3955 16.127C11.5804 16.0454 11.7849 16 12 16C12.0507 16 12.1009 16.0019 12.1504 16.0068L13.1201 14.7178C12.7739 14.5782 12.3962 14.5 12 14.5ZM21.5 7H38L39 1.5H33.5L21.5 7ZM40 7H55L53 2L41 1.5L40 7Z" fill="#D9D9D9"/>
</svg>
