<svg width="17" height="17" viewBox="0 0 17 17" fill="none" xmlns="http://www.w3.org/2000/svg">
<path d="M0.00334448 16.6667L1.13001 12.5267C0.387626 11.254 -0.00240886 9.80666 1.11935e-05 8.33333C1.11935e-05 3.73083 3.73084 0 8.33334 0C12.9358 0 16.6667 3.73083 16.6667 8.33333C16.6667 12.9358 12.9358 16.6667 8.33334 16.6667C6.86066 16.669 5.41389 16.2793 4.14168 15.5375L0.00334448 16.6667ZM5.32584 4.42333C5.21823 4.43002 5.11307 4.45836 5.01668 4.50667C4.92628 4.55786 4.84376 4.62185 4.77168 4.69667C4.67168 4.79083 4.61501 4.8725 4.55418 4.95167C4.24619 5.3525 4.08052 5.84451 4.08334 6.35C4.08501 6.75833 4.19168 7.15583 4.35834 7.5275C4.69918 8.27917 5.26001 9.075 6.00084 9.8125C6.17918 9.99 6.35334 10.1683 6.54084 10.3342C7.46034 11.1437 8.55606 11.7275 9.74084 12.0392L10.215 12.1117C10.3692 12.12 10.5233 12.1083 10.6783 12.1008C10.921 12.0883 11.158 12.0226 11.3725 11.9083C11.4816 11.8521 11.5881 11.7909 11.6917 11.725C11.6917 11.725 11.7275 11.7017 11.7958 11.65C11.9083 11.5667 11.9775 11.5075 12.0708 11.41C12.14 11.3383 12.2 11.2542 12.2458 11.1583C12.3108 11.0225 12.3758 10.7633 12.4025 10.5475C12.4225 10.3825 12.4167 10.2925 12.4142 10.2367C12.4108 10.1475 12.3367 10.055 12.2558 10.0158L11.7708 9.79833C11.7708 9.79833 11.0458 9.4825 10.6033 9.28083C10.5567 9.2605 10.5067 9.24891 10.4558 9.24667C10.3988 9.24081 10.3412 9.24723 10.2869 9.26548C10.2326 9.28374 10.1828 9.31341 10.1408 9.3525V9.35083C10.1367 9.35083 10.0808 9.39833 9.47834 10.1283C9.44376 10.1748 9.39613 10.2099 9.34151 10.2292C9.2869 10.2485 9.22777 10.2511 9.17168 10.2367C9.11738 10.2221 9.06419 10.2038 9.01251 10.1817C8.90918 10.1383 8.87334 10.1217 8.80251 10.0908L8.79834 10.0892C8.3216 9.88102 7.8802 9.59987 7.49001 9.25583C7.38501 9.16417 7.28751 9.06417 7.18751 8.9675C6.85966 8.65353 6.57394 8.29834 6.33751 7.91083L6.28834 7.83167C6.25303 7.77847 6.22448 7.72108 6.20334 7.66083C6.17168 7.53833 6.25418 7.44 6.25418 7.44C6.25418 7.44 6.45668 7.21833 6.55084 7.09833C6.62925 6.9986 6.70241 6.89485 6.77001 6.7875C6.86834 6.62917 6.89918 6.46667 6.84751 6.34083C6.61418 5.77083 6.37251 5.20333 6.12418 4.64C6.07501 4.52833 5.92918 4.44833 5.79668 4.4325C5.75168 4.4275 5.70668 4.4225 5.66168 4.41917C5.54977 4.41361 5.43762 4.41472 5.32584 4.4225V4.42333Z" fill="#2A455A"/>
</svg>
