<svg width="172" height="41" viewBox="0 0 172 41" fill="none" xmlns="http://www.w3.org/2000/svg">
<path d="M35.8021 39.9541L31.8672 31.7575C39.4186 29.9327 43.3009 21.4952 39.4075 14.6028C37.5522 11.3159 34.2182 9.14767 30.455 8.72677H4.24807L0.000244141 0.0289757L32.0583 0.0234375C44.2812 1.04524 52.9734 12.4318 50.4618 24.5523C48.9388 31.8932 43.1071 38.1514 35.8021 39.9568V39.9541Z" fill="#EE1414"/>
<path d="M15.5648 32.0016H27.8209L31.9884 40.6994H0.733398L15.4457 9.95117L20.9313 20.9335C19.3335 24.705 17.229 28.2523 15.5648 31.9989V32.0016Z" fill="#F9FBFF"/>
<path d="M58.835 17.9111V0.0253906H68.4576C73.8602 0.0253906 77.629 6.31128 76.3275 11.3206C75.577 14.2171 72.099 17.9111 68.9478 17.9111H58.835ZM63.1243 14.3583H67.9647C69.7342 14.3583 71.847 12.1153 72.2818 10.465C73.1014 7.33862 70.8502 3.57817 67.4746 3.57817H63.1243V14.3583Z" fill="#F9FBFF"/>
<path d="M86.3877 0.0633381C92.981 -0.609557 99.7155 4.31947 97.6276 11.4195C95.3735 19.0844 83.7931 20.192 79.3265 13.7871C75.267 7.96639 79.8 0.736233 86.3877 0.0633381ZM87.1243 3.61611C79.4013 4.43577 80.4867 15.2187 88.7886 14.3464C96.3399 13.5517 95.2461 2.75492 87.1243 3.61611Z" fill="#F9FBFF"/>
<path d="M140.197 0.0619986C145.126 -0.439211 150.479 2.11114 151.562 7.25339C153.694 17.3745 138.655 21.9574 133.014 13.6639C129.038 7.81829 133.673 0.726586 140.197 0.0647677V0.0619986ZM140.934 3.61477C133.086 4.3929 134.282 15.2755 142.601 14.3451C150.111 13.5061 148.964 2.81727 140.934 3.61477Z" fill="#F9FBFF"/>
<path d="M123.527 22.9703C129.242 22.7875 134.999 27.232 133.936 33.3711C132.662 40.7231 122.818 43.1876 117.313 38.7875C110.119 33.036 115.034 23.2417 123.53 22.9703H123.527ZM123.037 26.6421C115.447 27.5061 116.698 38.17 124.704 37.3725C132.48 36.5999 131.358 25.6951 123.037 26.6421Z" fill="#F9FBFF"/>
<path d="M125.637 11.2955H122.818L124.41 8.23287H130.295V14.2972C130.295 14.4052 128.949 15.6458 128.741 15.8064C121.902 21.1812 109.814 15.8729 112.337 6.76247C113.902 1.11624 120.705 -1.23751 125.945 0.634414C126.529 0.842098 129.647 2.44265 129.55 3.01032C129.519 3.182 127.263 5.40837 127.105 5.48037C127 5.52744 126.95 5.5579 126.825 5.52467C126.739 5.50252 125.748 4.64132 125.429 4.45856C121.439 2.1962 115.555 4.66625 116.092 9.62573C116.53 13.6769 121.702 15.4243 125.069 13.7296C126.077 13.2228 125.49 12.2453 125.637 11.2955Z" fill="#F9FBFF"/>
<path d="M84.0842 23.0566V34.3879C84.0842 34.5706 84.4913 35.4706 84.6186 35.6921C85.8897 37.9351 90.4864 38.2009 91.2811 35.3321C91.3753 34.9888 91.5636 34.0833 91.5636 33.7759V23.0566H95.7311V34.6343C95.7311 35.6257 94.881 37.7523 94.2579 38.5526C91.583 41.978 83.9956 41.7094 81.34 38.3615C80.6837 37.5336 79.7976 35.5481 79.7976 34.5125V23.0594H84.087L84.0842 23.0566Z" fill="#F9FBFF"/>
<path d="M155.179 0.0253906L160.877 11.5394L166.576 0.0253906H171.356L162.838 17.7893C162.475 18.1133 159.814 17.7893 159.155 17.9194L150.521 0.0253906H155.179Z" fill="#F9FBFF"/>
<path d="M79.7945 40.9426H75.015L69.3162 29.4286L63.6174 40.9426H58.9597L67.5966 23.0485C68.2556 23.1787 70.9195 22.8547 71.2795 23.1787L79.7973 40.9426H79.7945Z" fill="#F9FBFF"/>
<path d="M114.237 23.0566L112.52 26.6094H107.616V40.7596C107.616 40.7596 107.444 40.9424 107.433 40.9424H103.512C103.512 40.9424 103.329 40.7707 103.329 40.7596V26.6094H98.4254L96.7085 23.0566H114.237Z" fill="#F9FBFF"/>
<path d="M103.451 0.0253906V14.3583H111.235C111.844 15.5103 112.67 16.6595 113.013 17.9111H99.1619V0.0253906H103.451Z" fill="#F9FBFF"/>
</svg>
