<svg width="24" height="24" viewBox="0 0 24 24" fill="none" xmlns="http://www.w3.org/2000/svg">
<g opacity="0.4">
<path d="M21.9024 7.90309C21.8912 7.06334 21.734 6.23193 21.4379 5.44606C21.181 4.78318 20.7887 4.18117 20.286 3.67849C19.7833 3.17581 19.1813 2.78351 18.5185 2.52667C17.7427 2.23546 16.9231 2.07799 16.0947 2.06098C15.0281 2.01331 14.6899 2 11.9823 2C9.27464 2 8.9276 2 7.86872 2.06098C7.04065 2.07812 6.22147 2.23558 5.44606 2.52667C4.78308 2.78333 4.18097 3.17557 3.67827 3.67827C3.17557 4.18097 2.78333 4.78308 2.52667 5.44606C2.23487 6.22124 2.07775 7.04059 2.06209 7.86872C2.01441 8.93647 2 9.27464 2 11.9823C2 14.6899 2 15.0358 2.06209 16.0958C2.07872 16.9252 2.23506 17.7434 2.52667 18.5207C2.78376 19.1835 3.17629 19.7853 3.67916 20.2878C4.18203 20.7903 4.78419 21.1824 5.44717 21.439C6.22046 21.7419 7.03977 21.9106 7.86983 21.9379C8.93758 21.9856 9.27575 22 11.9834 22C14.691 22 15.038 22 16.0969 21.9379C16.9253 21.9216 17.7449 21.7645 18.5207 21.4733C19.1834 21.2162 19.7852 20.8238 20.2879 20.3211C20.7905 19.8185 21.1829 19.2166 21.4401 18.5539C21.7317 17.7778 21.888 16.9595 21.9046 16.1291C21.9523 15.0624 21.9667 14.7242 21.9667 12.0155C21.9645 9.30791 21.9645 8.96419 21.9024 7.90309ZM11.9756 17.1026C9.14381 17.1026 6.84976 14.8085 6.84976 11.9767C6.84976 9.14492 9.14381 6.85087 11.9756 6.85087C13.3351 6.85087 14.6388 7.39091 15.6001 8.3522C16.5614 9.31348 17.1015 10.6173 17.1015 11.9767C17.1015 13.3362 16.5614 14.64 15.6001 15.6012C14.6388 16.5625 13.3351 17.1026 11.9756 17.1026ZM17.3055 7.85653C17.1485 7.85667 16.993 7.82586 16.8479 7.76584C16.7028 7.70582 16.571 7.61779 16.46 7.50677C16.349 7.39575 16.2609 7.26393 16.2009 7.11885C16.1409 6.97377 16.1101 6.81828 16.1102 6.66127C16.1102 6.50438 16.1411 6.34903 16.2012 6.20408C16.2612 6.05913 16.3492 5.92743 16.4601 5.81649C16.5711 5.70555 16.7028 5.61755 16.8477 5.55751C16.9927 5.49747 17.148 5.46657 17.3049 5.46657C17.4618 5.46657 17.6172 5.49747 17.7621 5.55751C17.9071 5.61755 18.0388 5.70555 18.1497 5.81649C18.2606 5.92743 18.3486 6.05913 18.4087 6.20408C18.4687 6.34903 18.4996 6.50438 18.4996 6.66127C18.4996 7.3221 17.9652 7.85653 17.3055 7.85653Z" fill="#E6EBF3"/>
</g>
</svg>
