<svg width="24" height="24" viewBox="0 0 24 24" fill="none" xmlns="http://www.w3.org/2000/svg">
<g opacity="0.4">
<path d="M22.098 6.37937C21.8497 5.44897 21.1221 4.71554 20.1994 4.46501C18.5137 4 11.7707 4 11.7707 4C11.7707 4 5.02792 4 3.3422 4.44738C2.43722 4.69764 1.69185 5.4491 1.44362 6.37937C1 8.07874 1 11.603 1 11.603C1 11.603 1 15.145 1.44362 16.8266C1.69212 17.7569 2.41947 18.4903 3.34234 18.7409C5.04567 19.206 11.7709 19.206 11.7709 19.206C11.7709 19.206 18.5137 19.206 20.1994 18.7586C21.1223 18.5082 21.8497 17.7748 22.0982 16.8445C22.5417 15.145 22.5417 11.6209 22.5417 11.6209C22.5417 11.6209 22.5595 8.07874 22.098 6.37937ZM9.62385 14.8588V8.34716L15.231 11.603L9.62385 14.8588Z" fill="#E6EBF3"/>
</g>
</svg>
