<svg width="24" height="24" viewBox="0 0 24 24" fill="none" xmlns="http://www.w3.org/2000/svg">
<g opacity="0.4">
<path d="M3.2 20.848C2.595 20.848 2.07727 20.6328 1.6468 20.2023C1.21633 19.7719 1.00073 19.2538 1 18.648V5.44805C1 4.84305 1.2156 4.32531 1.6468 3.89485C2.078 3.46438 2.59573 3.24878 3.2 3.24805H20.8C21.405 3.24805 21.9231 3.46365 22.3543 3.89485C22.7855 4.32605 23.0007 4.84378 23 5.44805V18.648C23 19.253 22.7848 19.7711 22.3543 20.2023C21.9238 20.6335 21.4057 20.8488 20.8 20.848H3.2ZM12 12.9555C12.0917 12.9555 12.1881 12.9416 12.2893 12.9137C12.3905 12.8859 12.4866 12.8448 12.5775 12.7905L20.36 7.92305C20.5067 7.83138 20.6167 7.71698 20.69 7.57985C20.7633 7.44271 20.8 7.29128 20.8 7.12555C20.8 6.75888 20.6442 6.48388 20.3325 6.30055C20.0208 6.11721 19.7 6.12638 19.37 6.32805L12 10.948L4.63 6.32805C4.3 6.12638 3.97917 6.12198 3.6675 6.31485C3.35583 6.50771 3.2 6.77795 3.2 7.12555C3.2 7.30888 3.23667 7.46948 3.31 7.60735C3.38333 7.74521 3.49333 7.85045 3.64 7.92305L11.4225 12.7905C11.5142 12.8455 11.6106 12.887 11.7118 12.9148C11.813 12.9427 11.9091 12.9563 12 12.9555Z" fill="#E6EBF3"/>
</g>
</svg>
