<svg width="30" height="30" viewBox="0 0 30 30" fill="none" xmlns="http://www.w3.org/2000/svg">
<path d="M16.5 3.75C22.7132 3.75 27.75 8.7868 27.75 15C27.75 21.2132 22.7132 26.25 16.5 26.25C10.2868 26.25 5.25 21.2132 5.25 15C5.25 8.7868 10.2868 3.75 16.5 3.75ZM18.6133 16.6797C18.2042 17.1943 17.6218 17.5427 16.9746 17.6582C16.3274 17.7737 15.6595 17.649 15.0977 17.3076L13.3848 20.1279C14.6333 20.8864 16.1156 21.1628 17.5537 20.9062C18.992 20.6496 20.2871 19.8771 21.1963 18.7334L18.6133 16.6797ZM13.6172 9.73828C12.3359 10.4403 11.3543 11.5852 10.8574 12.959C10.3606 14.3328 10.3823 15.8411 10.918 17.2002L13.9883 15.9902C13.7472 15.3787 13.7374 14.7002 13.9609 14.082C14.1845 13.4637 14.6265 12.9477 15.2031 12.6318L13.6172 9.73828ZM16.8984 12.3291C17.5485 12.4261 18.1409 12.7572 18.5645 13.2598C18.9881 13.7626 19.2139 14.4032 19.1992 15.0605L22.498 15.1338C22.5306 13.6733 22.0292 12.251 21.0879 11.1338C20.1465 10.0166 18.8297 9.28094 17.3848 9.06543L16.8984 12.3291Z" fill="#EE1414"/>
<path d="M1.5 23.25H16.5V26.25H0L1.5 23.25Z" fill="#EE1414"/>
<path d="M3.75 17.25H8.25V20.25H2.25L3.75 17.25Z" fill="#EE1414"/>
<path d="M3.75 3.75H16.5V6.75H2.25L3.75 3.75Z" fill="#EE1414"/>
<path d="M1.5 9.75H9V12.75H0L1.5 9.75Z" fill="#EE1414"/>
</svg>
