<svg width="172" height="41" viewBox="0 0 172 41" fill="none" xmlns="http://www.w3.org/2000/svg">
<path d="M35.8021 39.9541L31.8672 31.7575C39.4186 29.9327 43.3009 21.4952 39.4075 14.6028C37.5522 11.3159 34.2182 9.14767 30.455 8.72677H4.24807L0.000244141 0.0289757L32.0583 0.0234375C44.2812 1.04524 52.9734 12.4318 50.4618 24.5523C48.9388 31.8932 43.1071 38.1514 35.8021 39.9568V39.9541Z" fill="#EE1414"/>
<path d="M15.5648 32.0016H27.8209L31.9884 40.6994H0.733398L15.4457 9.95117L20.9313 20.9335C19.3335 24.705 17.229 28.2523 15.5648 31.9989V32.0016Z" fill="#F9FBFF"/>
<path d="M58.835 17.9121V0.0263672H68.4576C73.8602 0.0263672 77.629 6.31226 76.3275 11.3216C75.577 14.2181 72.099 17.9121 68.9478 17.9121H58.835ZM63.1243 14.3593H67.9647C69.7342 14.3593 71.847 12.1163 72.2818 10.4659C73.1014 7.3396 70.8502 3.57914 67.4746 3.57914H63.1243V14.3593Z" fill="#F9FBFF"/>
<path d="M86.3877 0.0623616C92.981 -0.610533 99.7155 4.31849 97.6276 11.4185C95.3735 19.0834 83.7931 20.1911 79.3265 13.7861C75.267 7.96542 79.8 0.735257 86.3877 0.0623616ZM87.1243 3.61514C79.4013 4.43479 80.4867 15.2177 88.7886 14.3455C96.3399 13.5507 95.2461 2.75394 87.1243 3.61514Z" fill="#F9FBFF"/>
<path d="M140.197 0.0619986C145.126 -0.439211 150.479 2.11114 151.562 7.25339C153.694 17.3745 138.655 21.9574 133.014 13.6639C129.038 7.81829 133.673 0.726586 140.197 0.0647677V0.0619986ZM140.934 3.61477C133.086 4.3929 134.282 15.2755 142.601 14.3451C150.111 13.5061 148.964 2.81727 140.934 3.61477Z" fill="#F9FBFF"/>
<path d="M123.527 22.9713C129.242 22.7885 134.999 27.2329 133.936 33.3721C132.662 40.7241 122.818 43.1886 117.313 38.7884C110.119 33.037 115.034 23.2426 123.53 22.9713H123.527ZM123.037 26.6431C115.447 27.5071 116.698 38.1709 124.704 37.3734C132.48 36.6008 131.358 25.6961 123.037 26.6431Z" fill="#F9FBFF"/>
<path d="M125.637 11.2965H122.818L124.41 8.23384H130.295V14.2982C130.295 14.4062 128.949 15.6468 128.741 15.8074C121.902 21.1822 109.814 15.8738 112.337 6.76344C113.902 1.11722 120.705 -1.23653 125.945 0.635391C126.529 0.843075 129.647 2.44362 129.55 3.01129C129.519 3.18298 127.263 5.40935 127.105 5.48134C127 5.52842 126.95 5.55888 126.825 5.52565C126.739 5.5035 125.748 4.6423 125.429 4.45954C121.439 2.19717 115.555 4.66722 116.092 9.62671C116.53 13.6779 121.702 15.4252 125.069 13.7305C126.077 13.2238 125.49 12.2463 125.637 11.2965Z" fill="#F9FBFF"/>
<path d="M84.0842 23.0566V34.3879C84.0842 34.5706 84.4913 35.4706 84.6186 35.6921C85.8897 37.9351 90.4864 38.2009 91.2811 35.3321C91.3753 34.9888 91.5636 34.0833 91.5636 33.7759V23.0566H95.7311V34.6343C95.7311 35.6257 94.881 37.7523 94.2579 38.5526C91.583 41.978 83.9956 41.7094 81.34 38.3615C80.6837 37.5336 79.7976 35.5481 79.7976 34.5125V23.0594H84.087L84.0842 23.0566Z" fill="#F9FBFF"/>
<path d="M155.179 0.0263672L160.877 11.5403L166.576 0.0263672H171.356L162.838 17.7902C162.475 18.1142 159.814 17.7902 159.155 17.9204L150.521 0.0263672H155.179Z" fill="#F9FBFF"/>
<path d="M79.7945 40.9426H75.015L69.3162 29.4286L63.6174 40.9426H58.9597L67.5966 23.0485C68.2556 23.1787 70.9195 22.8547 71.2795 23.1787L79.7973 40.9426H79.7945Z" fill="#F9FBFF"/>
<path d="M114.237 23.0566L112.52 26.6094H107.616V40.7596C107.616 40.7596 107.444 40.9424 107.433 40.9424H103.512C103.512 40.9424 103.329 40.7707 103.329 40.7596V26.6094H98.4254L96.7085 23.0566H114.237Z" fill="#F9FBFF"/>
<path d="M103.451 0.0263672V14.3593H111.235C111.844 15.5113 112.67 16.6604 113.013 17.9121H99.1619V0.0263672H103.451Z" fill="#F9FBFF"/>
</svg>
