<svg width="20" height="20" viewBox="0 0 20 20" fill="none" xmlns="http://www.w3.org/2000/svg">
<g clip-path="url(#clip0_1336_2289)">
<path fill-rule="evenodd" clip-rule="evenodd" d="M0 0H20V20H0V0Z" fill="#F9FBFF"/>
<path fill-rule="evenodd" clip-rule="evenodd" d="M0.858398 6.54492L3.29668 2.88887L3.90602 3.29525L1.46774 6.9513L0.858398 6.54492ZM1.77241 7.15449L4.21069 3.49844L4.82003 3.90482L2.38175 7.56087L1.77241 7.15449ZM2.68642 7.76406L5.1247 4.10801L5.73405 4.51439L3.29576 8.17044L2.68642 7.76406Z" fill="#000001"/>
<path fill-rule="evenodd" clip-rule="evenodd" d="M14.2637 15.4854L16.702 11.8293L17.3113 12.2357L14.873 15.8917L14.2637 15.4854ZM15.1777 16.0949L17.616 12.4389L18.2253 12.8453L15.787 16.5013L15.1777 16.0949ZM16.0917 16.7045L18.53 13.0484L19.1393 13.4548L16.701 17.1109L16.0917 16.7045Z" fill="#000001"/>
<path fill-rule="evenodd" clip-rule="evenodd" d="M15.1785 13.4541L18.2252 15.486L15.1785 13.4541Z" fill="black"/>
<path d="M15.1785 13.4541L18.2252 15.486" stroke="#F9FBFF" stroke-width="0.366211"/>
<path fill-rule="evenodd" clip-rule="evenodd" d="M6.34277 7.56152C6.98945 6.59188 7.99482 5.91884 9.13773 5.69046C10.2806 5.46209 11.4675 5.69708 12.4371 6.34376C13.4067 6.99043 14.0798 7.9958 14.3082 9.13871C14.5365 10.2816 14.3015 11.4684 13.6549 12.4381L6.34277 7.56152Z" fill="#CD2E3A"/>
<path fill-rule="evenodd" clip-rule="evenodd" d="M6.34258 7.56173C5.69591 8.53137 5.46091 9.71819 5.68928 10.8611C5.91766 12.004 6.5907 13.0094 7.56035 13.6561C8.52999 14.3027 9.71681 14.5377 10.8597 14.3093C12.0026 14.081 13.008 13.4079 13.6547 12.4383C13.978 11.9535 14.0955 11.3601 13.9813 10.7886C13.8671 10.2171 13.5306 9.71446 13.0458 9.39112C12.561 9.06779 11.9676 8.95029 11.3961 9.06448C10.8247 9.17866 10.322 9.51518 9.99863 10L6.34258 7.56173Z" fill="#0047A0"/>
<path d="M9.99872 9.99991C10.672 8.99032 10.3994 7.62605 9.38984 6.95274C8.38025 6.27943 7.01599 6.55203 6.34268 7.56162C5.66936 8.57121 5.94197 9.93548 6.95156 10.6088C7.96115 11.2821 9.32541 11.0095 9.99872 9.99991Z" fill="#CD2E3A"/>
<path fill-rule="evenodd" clip-rule="evenodd" d="M3.29883 17.1113L0.860547 13.4553L1.46989 13.0489L3.90817 16.7049L3.29883 17.1113ZM4.21284 16.5018L1.77456 12.8457L2.3839 12.4393L4.82218 16.0954L4.21284 16.5018ZM5.12685 15.8922L2.68857 12.2361L3.29791 11.8298L5.73619 15.4858L5.12685 15.8922Z" fill="#000001"/>
<path fill-rule="evenodd" clip-rule="evenodd" d="M16.7041 8.1709L14.2658 4.51485L14.8752 4.10847L17.3134 7.76452L16.7041 8.1709ZM17.6181 7.56133L15.1798 3.90528L15.7892 3.4989L18.2275 7.15495L17.6181 7.56133ZM18.5321 6.95176L16.0938 3.29571L16.7032 2.88933L19.1415 6.54538L18.5321 6.95176Z" fill="#000001"/>
<path fill-rule="evenodd" clip-rule="evenodd" d="M2.84082 14.7744L3.75483 14.1648L2.84082 14.7744ZM15.18 6.54521L16.2463 5.83405L15.18 6.54521ZM17.1603 5.22448L18.0744 4.61491L17.1603 5.22448Z" fill="black"/>
<path d="M2.84082 14.7744L3.75483 14.1648M15.18 6.54521L16.2463 5.83405M17.1603 5.22448L18.0744 4.61491" stroke="#F9FBFF" stroke-width="0.366211"/>
</g>
<defs>
<clipPath id="clip0_1336_2289">
<rect width="20" height="20" fill="white"/>
</clipPath>
</defs>
</svg>
