<svg width="20" height="20" viewBox="0 0 20 20" fill="none" xmlns="http://www.w3.org/2000/svg">
<g clip-path="url(#clip0_3120_14284)">
<path fill-rule="evenodd" clip-rule="evenodd" d="M0 0H20V20H0V0Z" fill="#F9FBFF"/>
<path fill-rule="evenodd" clip-rule="evenodd" d="M0.859482 6.54541L3.29776 2.88936L3.9071 3.29574L1.46882 6.95179L0.859482 6.54541ZM1.77349 7.15498L4.21178 3.49893L4.82112 3.90531L2.38284 7.56136L1.77349 7.15498ZM2.68751 7.76455L5.12579 4.1085L5.73513 4.51488L3.29685 8.17093L2.68751 7.76455Z" fill="#000001"/>
<path fill-rule="evenodd" clip-rule="evenodd" d="M14.2656 15.4858L16.7039 11.8298L17.3132 12.2362L14.875 15.8922L14.2656 15.4858ZM15.1796 16.0954L17.6179 12.4394L18.2273 12.8457L15.789 16.5018L15.1796 16.0954ZM16.0936 16.705L18.5319 13.0489L19.1413 13.4553L16.703 17.1114L16.0936 16.705Z" fill="#000001"/>
<path fill-rule="evenodd" clip-rule="evenodd" d="M15.1797 13.4541L18.2264 15.486L15.1797 13.4541Z" fill="black"/>
<path d="M15.1797 13.4541L18.2264 15.486" stroke="#F9FBFF" stroke-width="0.366211"/>
<path fill-rule="evenodd" clip-rule="evenodd" d="M6.34357 7.56152C6.99025 6.59188 7.99562 5.91884 9.13853 5.69046C10.2814 5.46209 11.4683 5.69708 12.4379 6.34376C13.4075 6.99043 14.0806 7.9958 14.309 9.13871C14.5373 10.2816 14.3023 11.4684 13.6557 12.4381L6.34357 7.56152Z" fill="#CD2E3A"/>
<path fill-rule="evenodd" clip-rule="evenodd" d="M6.34453 7.56124C5.69786 8.53088 5.46286 9.7177 5.69124 10.8606C5.91961 12.0035 6.59265 13.0089 7.5623 13.6556C8.53194 14.3022 9.71876 14.5372 10.8617 14.3089C12.0046 14.0805 13.01 13.4074 13.6566 12.4378C13.98 11.953 14.0975 11.3596 13.9833 10.7881C13.8691 10.2167 13.5326 9.71397 13.0477 9.39063C12.5629 9.0673 11.9695 8.9498 11.3981 9.06399C10.8266 9.17818 10.3239 9.5147 10.0006 9.99952L6.34453 7.56124Z" fill="#0047A0"/>
<path d="M10.0002 9.99991C10.6735 8.99032 10.4009 7.62605 9.39131 6.95274C8.38172 6.27943 7.01745 6.55203 6.34414 7.56162C5.67083 8.57121 5.94343 9.93548 6.95302 10.6088C7.96261 11.2821 9.32688 11.0095 10.0002 9.99991Z" fill="#CD2E3A"/>
<path fill-rule="evenodd" clip-rule="evenodd" d="M3.29688 17.1104L0.858594 13.4543L1.46794 13.0479L3.90622 16.704L3.29688 17.1104ZM4.21089 16.5008L1.77261 12.8447L2.38195 12.4384L4.82023 16.0944L4.21089 16.5008ZM5.1249 15.8912L2.68662 12.2352L3.29596 11.8288L5.73424 15.4848L5.1249 15.8912Z" fill="#000001"/>
<path fill-rule="evenodd" clip-rule="evenodd" d="M16.7031 8.16992L14.2648 4.51387L14.8742 4.10749L17.3125 7.76354L16.7031 8.16992ZM17.6171 7.56035L15.1789 3.9043L15.7882 3.49792L18.2265 7.15397L17.6171 7.56035ZM18.5311 6.95078L16.0929 3.29473L16.7022 2.88835L19.1405 6.5444L18.5311 6.95078Z" fill="#000001"/>
<path fill-rule="evenodd" clip-rule="evenodd" d="M2.83984 14.7744L3.75386 14.1648L2.83984 14.7744ZM15.179 6.54521L16.2454 5.83405L15.179 6.54521ZM17.1594 5.22448L18.0734 4.61491L17.1594 5.22448Z" fill="black"/>
<path d="M2.83984 14.7744L3.75386 14.1648M15.179 6.54521L16.2454 5.83405M17.1594 5.22448L18.0734 4.61491" stroke="#F9FBFF" stroke-width="0.366211"/>
</g>
<defs>
<clipPath id="clip0_3120_14284">
<rect width="20" height="20" fill="white"/>
</clipPath>
</defs>
</svg>
