<svg width="110" height="20" viewBox="0 0 110 20" fill="none" xmlns="http://www.w3.org/2000/svg">
<g clip-path="url(#clip0_1449_54)">
<path d="M0 0H20V20H0V0Z" fill="#EE1C25"/>
<path d="M8 4.1L2.9 7.4L5 2L6.8 7.4L2 4.1H8Z" fill="#FFFF00"/>
<path d="M9.24211 1.2908L11.0593 2.18084L9.15718 2.50767L10.3902 1.06727L10.2715 3.00397L9.24211 1.2908Z" fill="#FFFF00"/>
<path d="M11.5597 3.05511L12.8882 4.58316L11.0075 4.14377L12.705 3.29613L11.8415 5.03516L11.5597 3.05511Z" fill="#FFFF00"/>
<path d="M11.9748 5.95797L12.5639 7.89636L11.0258 6.7267L12.9225 6.64605L11.4232 7.88153L11.9748 5.95797Z" fill="#FFFF00"/>
<path d="M10.3898 8.03277L10.1852 10.0463L9.21875 8.37527L10.9978 9.03227L9.13975 9.59277L10.3898 8.03277Z" fill="#FFFF00"/>
</g>
<g clip-path="url(#clip1_1449_54)">
<mask id="mask0_1449_54" style="mask-type:luminance" maskUnits="userSpaceOnUse" x="30" y="0" width="20" height="21">
<path d="M30 0H49.9983V20.0011H30V0Z" fill="white"/>
</mask>
<g mask="url(#mask0_1449_54)">
<path fill-rule="evenodd" clip-rule="evenodd" d="M25 0H55.0003V20.0011H25V0Z" fill="#F9FBFF"/>
<path d="M40.0018 16.2185C43.4352 16.2185 46.2185 13.4352 46.2185 10.0018C46.2185 6.56846 43.4352 3.78516 40.0018 3.78516C36.5685 3.78516 33.7852 6.56846 33.7852 10.0018C33.7852 13.4352 36.5685 16.2185 40.0018 16.2185Z" fill="#BC002D"/>
</g>
</g>
<g clip-path="url(#clip2_1449_54)">
<path fill-rule="evenodd" clip-rule="evenodd" d="M60 0H80V20H60V0Z" fill="#F9FBFF"/>
<path fill-rule="evenodd" clip-rule="evenodd" d="M60.8595 6.54541L63.2978 2.88936L63.9071 3.29574L61.4688 6.95179L60.8595 6.54541ZM61.7735 7.15498L64.2118 3.49893L64.8211 3.90531L62.3829 7.56136L61.7735 7.15498ZM62.6875 7.76455L65.1258 4.1085L65.7351 4.51488L63.2969 8.17093L62.6875 7.76455Z" fill="#000001"/>
<path fill-rule="evenodd" clip-rule="evenodd" d="M74.2656 15.4858L76.7039 11.8298L77.3132 12.2362L74.875 15.8922L74.2656 15.4858ZM75.1796 16.0954L77.6179 12.4394L78.2273 12.8457L75.789 16.5018L75.1796 16.0954ZM76.0936 16.705L78.5319 13.0489L79.1413 13.4553L76.703 17.1114L76.0936 16.705Z" fill="#000001"/>
<path fill-rule="evenodd" clip-rule="evenodd" d="M75.1797 13.4541L78.2264 15.486L75.1797 13.4541Z" fill="black"/>
<path d="M75.1797 13.4541L78.2264 15.486" stroke="#F9FBFF" stroke-width="0.366211"/>
<path fill-rule="evenodd" clip-rule="evenodd" d="M66.3436 7.56152C66.9903 6.59188 67.9957 5.91884 69.1386 5.69046C70.2815 5.46209 71.4683 5.69708 72.438 6.34376C73.4076 6.99043 74.0806 7.9958 74.309 9.13871C74.5374 10.2816 74.3024 11.4684 73.6557 12.4381L66.3436 7.56152Z" fill="#CD2E3A"/>
<path fill-rule="evenodd" clip-rule="evenodd" d="M66.3445 7.56124C65.6979 8.53088 65.4629 9.7177 65.6912 10.8606C65.9196 12.0035 66.5927 13.0089 67.5623 13.6556C68.5319 14.3022 69.7188 14.5372 70.8617 14.3089C72.0046 14.0805 73.01 13.4074 73.6566 12.4378C73.98 11.953 74.0975 11.3596 73.9833 10.7881C73.8691 10.2167 73.5326 9.71397 73.0477 9.39063C72.5629 9.0673 71.9695 8.9498 71.3981 9.06399C70.8266 9.17818 70.3239 9.5147 70.0006 9.99952L66.3445 7.56124Z" fill="#0047A0"/>
<path d="M70.0002 9.99991C70.6735 8.99032 70.4009 7.62605 69.3913 6.95274C68.3817 6.27943 67.0175 6.55203 66.3441 7.56162C65.6708 8.57121 65.9434 9.93548 66.953 10.6088C67.9626 11.2821 69.3269 11.0095 70.0002 9.99991Z" fill="#CD2E3A"/>
<path fill-rule="evenodd" clip-rule="evenodd" d="M63.2971 17.1104L60.8588 13.4543L61.4682 13.0479L63.9065 16.704L63.2971 17.1104ZM64.2111 16.5008L61.7729 12.8447L62.3822 12.4384L64.8205 16.0944L64.2111 16.5008ZM65.1251 15.8912L62.6869 12.2352L63.2962 11.8288L65.7345 15.4848L65.1251 15.8912Z" fill="#000001"/>
<path fill-rule="evenodd" clip-rule="evenodd" d="M76.7034 8.16992L74.2651 4.51387L74.8744 4.10749L77.3127 7.76354L76.7034 8.16992ZM77.6174 7.56035L75.1791 3.9043L75.7884 3.49792L78.2267 7.15397L77.6174 7.56035ZM78.5314 6.95078L76.0931 3.29473L76.7025 2.88835L79.1407 6.5444L78.5314 6.95078Z" fill="#000001"/>
<path fill-rule="evenodd" clip-rule="evenodd" d="M62.8401 14.7744L63.7541 14.1648L62.8401 14.7744ZM75.1793 6.54521L76.2456 5.83405L75.1793 6.54521ZM77.1596 5.22448L78.0736 4.61491L77.1596 5.22448Z" fill="black"/>
<path d="M62.8401 14.7744L63.7541 14.1648M75.1793 6.54521L76.2456 5.83405M77.1596 5.22448L78.0736 4.61491" stroke="#F9FBFF" stroke-width="0.366211"/>
</g>
<g clip-path="url(#clip3_1449_54)">
<rect width="20" height="20" transform="translate(90)" fill="white"/>
<g clip-path="url(#clip4_1449_54)">
<path d="M90 0H110V6.66797H90V0Z" fill="#00732F"/>
<path d="M90 6.66797H110V13.332H90V6.66797Z" fill="white"/>
<path d="M90 13.332H110V20H90V13.332Z" fill="#000001"/>
<path d="M90 0H97.0312V20H90V0Z" fill="#FF0000"/>
</g>
</g>
<defs>
<clipPath id="clip0_1449_54">
<rect width="20" height="20" fill="white"/>
</clipPath>
<clipPath id="clip1_1449_54">
<rect width="20" height="20" fill="white" transform="translate(30)"/>
</clipPath>
<clipPath id="clip2_1449_54">
<rect width="20" height="20" fill="white" transform="translate(60)"/>
</clipPath>
<clipPath id="clip3_1449_54">
<rect width="20" height="20" fill="white" transform="translate(90)"/>
</clipPath>
<clipPath id="clip4_1449_54">
<rect width="20" height="20" fill="white" transform="translate(90)"/>
</clipPath>
</defs>
</svg>
