<svg width="20" height="20" viewBox="0 0 20 20" fill="none" xmlns="http://www.w3.org/2000/svg">
<g clip-path="url(#clip0_3120_14259)">
<path d="M0 0H20V20H0V0Z" fill="#EE1C25"/>
<path d="M8 4.1L2.9 7.4L5 2L6.8 7.4L2 4.1H8Z" fill="#FFFF00"/>
<path d="M9.24211 1.2908L11.0593 2.18084L9.15718 2.50767L10.3902 1.06727L10.2715 3.00397L9.24211 1.2908Z" fill="#FFFF00"/>
<path d="M11.5597 3.05511L12.8882 4.58316L11.0075 4.14377L12.705 3.29613L11.8415 5.03516L11.5597 3.05511Z" fill="#FFFF00"/>
<path d="M11.9748 5.95797L12.5639 7.89636L11.0258 6.7267L12.9225 6.64605L11.4232 7.88153L11.9748 5.95797Z" fill="#FFFF00"/>
<path d="M10.3898 8.03277L10.1852 10.0463L9.21875 8.37527L10.9978 9.03227L9.13975 9.59277L10.3898 8.03277Z" fill="#FFFF00"/>
</g>
<defs>
<clipPath id="clip0_3120_14259">
<rect width="20" height="20" fill="white"/>
</clipPath>
</defs>
</svg>
