<svg width="20" height="20" viewBox="0 0 20 20" fill="none" xmlns="http://www.w3.org/2000/svg">
<rect width="20" height="20" rx="10" fill="white"/>
<path fill-rule="evenodd" clip-rule="evenodd" d="M10 0C12.6516 0 15.1969 1.05402 17.0703 2.92871C18.9453 4.8034 20 7.34892 20 10C19.9999 12.651 18.9452 15.1962 17.0703 17.0708C15.1969 18.9455 12.6516 20 10 20C7.34844 20 4.80312 18.9455 2.92969 17.0708C1.05476 15.1962 6.47487e-05 12.651 0 10C0.000536636 7.3478 1.05435 4.80415 2.92969 2.92871C4.80312 1.05402 7.34844 0 10 0ZM14.5215 6.38818C14.1574 6.3946 13.5997 6.58383 10.9136 7.6748C9.97386 8.05691 8.09446 8.84794 5.27539 10.0474C4.81779 10.2251 4.57739 10.3989 4.55615 10.5688C4.51385 10.8954 4.99586 10.9972 5.6001 11.1895C6.09412 11.3462 6.75906 11.5299 7.10352 11.5371C7.4177 11.5437 7.76669 11.4174 8.15186 11.1587C10.7861 9.42262 12.1443 8.54464 12.231 8.52539C12.2914 8.51211 12.3748 8.49529 12.4307 8.54443C12.488 8.59345 12.4816 8.6865 12.4756 8.71143C12.4281 8.91129 9.95476 11.1087 9.8125 11.2534C9.26862 11.8053 8.64919 12.1428 9.604 12.7573C10.4303 13.289 10.9107 13.6284 11.7612 14.1733C12.305 14.5214 12.7311 14.9342 13.293 14.8838C13.5513 14.8606 13.8187 14.6232 13.9531 13.9155C14.2734 12.2428 14.9038 8.61888 15.0488 7.12549C15.0624 6.99485 15.0458 6.82749 15.0337 6.75391C15.0201 6.68035 14.9927 6.57552 14.896 6.49805C14.7797 6.40623 14.6016 6.38695 14.5215 6.38818Z" fill="#0088CC"/>
</svg>
