<svg width="105" height="25" viewBox="0 0 105 25" fill="none" xmlns="http://www.w3.org/2000/svg">
<path d="M21.8304 24.3623L19.4311 19.3644C24.0356 18.2517 26.4028 13.1069 24.0288 8.90422C22.8975 6.89999 20.8646 5.5779 18.57 5.32125H2.59014L0 0.0177202L19.5476 0.0143433C27.0006 0.637394 32.3007 7.58045 30.7693 14.9709C29.8406 19.4471 26.2846 23.2631 21.8304 24.364V24.3623Z" fill="#EE1414"/>
<path d="M9.49055 19.5129H16.9638L19.505 24.8164H0.447021L9.41794 6.0675L12.7628 12.764C11.7886 15.0638 10.5053 17.2267 9.49055 19.5112V19.5129Z" fill="#F9FBFF"/>
<path d="M35.8749 10.9218V0.0158691H41.7424C45.0366 0.0158691 47.3346 3.84873 46.541 6.9032C46.0835 8.66935 43.9627 10.9218 42.0412 10.9218H35.8749ZM38.4903 8.75547H41.4418C42.5208 8.75547 43.8091 7.38779 44.0742 6.38146C44.574 4.47516 43.2012 2.1822 41.143 2.1822H38.4903V8.75547Z" fill="#F9FBFF"/>
<path d="M52.6753 0.0380402C56.6955 -0.372262 60.8019 2.63324 59.5288 6.96252C58.1544 11.6362 51.0931 12.3116 48.3696 8.40617C45.8943 4.85698 48.6584 0.448342 52.6753 0.0380402ZM53.1244 2.20437C48.4152 2.70416 49.0771 9.27912 54.1392 8.74725C58.7437 8.26265 58.0767 1.67925 53.1244 2.20437Z" fill="#F9FBFF"/>
<path d="M85.486 0.037804C88.4915 -0.267812 91.7553 1.28728 92.4155 4.4228C93.7156 10.5942 84.5455 13.3887 81.106 8.33164C78.6814 4.76725 81.5079 0.44304 85.486 0.0394925V0.037804ZM85.9351 2.20413C81.1499 2.67859 81.8793 9.31434 86.9516 8.74701C91.5307 8.2354 90.8317 1.71785 85.9351 2.20413Z" fill="#F9FBFF"/>
<path d="M75.3213 14.0066C78.8063 13.8952 82.3167 16.6052 81.6683 20.3486C80.8916 24.8315 74.8891 26.3342 71.5323 23.6512C67.1457 20.1443 70.1427 14.1721 75.323 14.0066H75.3213ZM75.0224 16.2455C70.3943 16.7723 71.1575 23.2747 76.0389 22.7884C80.7802 22.3173 80.0963 15.6681 75.0224 16.2455Z" fill="#F9FBFF"/>
<path d="M76.608 6.88784H74.8891L75.86 5.02038H79.448V8.71816C79.448 8.78401 78.6274 9.54045 78.5008 9.63838C74.3302 12.9157 66.96 9.67891 68.4982 4.12379C69.4522 0.680969 73.6008 -0.754243 76.7954 0.387173C77.1517 0.513809 79.0529 1.48975 78.9938 1.83589C78.9752 1.94058 77.5991 3.29812 77.5029 3.34202C77.4387 3.37073 77.4083 3.3893 77.3323 3.36904C77.28 3.35553 76.6755 2.83041 76.4813 2.71897C74.0482 1.33948 70.4602 2.84561 70.7878 5.86968C71.0545 8.33994 74.2086 9.40537 76.2618 8.37202C76.8764 8.06303 76.5185 7.46699 76.608 6.88784Z" fill="#F9FBFF"/>
<path d="M51.2706 14.0591V20.9684C51.2706 21.0799 51.5188 21.6286 51.5965 21.7637C52.3715 23.1314 55.1744 23.2935 55.659 21.5442C55.7164 21.3348 55.8312 20.7827 55.8312 20.5953V14.0591H58.3724V21.1187C58.3724 21.7232 57.854 23.0199 57.4741 23.5079C55.8431 25.5966 51.2166 25.4328 49.5973 23.3914C49.1972 22.8865 48.6569 21.6759 48.6569 21.0444V14.0608H51.2723L51.2706 14.0591Z" fill="#F9FBFF"/>
<path d="M94.621 0.0158691L98.0959 7.03659L101.571 0.0158691H104.485L99.2914 10.8475C99.0702 11.0451 97.4476 10.8475 97.0457 10.9269L91.781 0.0158691H94.621Z" fill="#F9FBFF"/>
<path d="M48.6551 24.9651H45.7408L42.2659 17.9444L38.791 24.9651H35.9509L41.2173 14.0541C41.6192 14.1335 43.2435 13.9359 43.463 14.1335L48.6568 24.9651H48.6551Z" fill="#F9FBFF"/>
<path d="M69.6566 14.0591L68.6098 16.2255H65.6195V24.8536C65.6195 24.8536 65.5148 24.9651 65.508 24.9651H63.1171C63.1171 24.9651 63.0057 24.8604 63.0057 24.8536V16.2255H60.0154L58.9685 14.0591H69.6566Z" fill="#F9FBFF"/>
<path d="M63.0799 0.0158691V8.75547H67.8263C68.1977 9.45788 68.7009 10.1586 68.9103 10.9218H60.4645V0.0158691H63.0799Z" fill="#F9FBFF"/>
</svg>
