<svg width="40" height="40" viewBox="0 0 40 40" fill="none" xmlns="http://www.w3.org/2000/svg">
<rect width="40" height="40" rx="20" fill="white"/>
<path fill-rule="evenodd" clip-rule="evenodd" d="M20 0C25.3031 0 30.3937 2.10805 34.1406 5.85742C37.8906 9.60679 40 14.6978 40 20C39.9999 25.302 37.8905 30.3923 34.1406 34.1416C30.3937 37.891 25.3031 40 20 40C14.6969 40 9.60625 37.891 5.85938 34.1416C2.10952 30.3923 0.000129497 25.302 0 20C0.00107327 14.6956 2.10869 9.6083 5.85938 5.85742C9.60625 2.10805 14.6969 0 20 0ZM29.043 12.7764C28.3148 12.7892 27.1995 13.1677 21.8271 15.3496C19.9477 16.1138 16.1889 17.6959 10.5508 20.0947C9.63557 20.4503 9.15478 20.7978 9.1123 21.1377C9.02771 21.7908 9.99171 21.9944 11.2002 22.3789C12.1882 22.6923 13.5181 23.0598 14.207 23.0742C14.8354 23.0875 15.5334 22.8349 16.3037 22.3174C21.5722 18.8452 24.2886 17.0893 24.4619 17.0508C24.5828 17.0242 24.7495 16.9906 24.8613 17.0889C24.9759 17.1869 24.9633 17.373 24.9512 17.4229C24.8562 17.8226 19.9095 22.2175 19.625 22.5068C18.5372 23.6106 17.2984 24.2857 19.208 25.5146C20.8607 26.5779 21.8214 27.2568 23.5225 28.3467C24.61 29.0428 25.4621 29.8683 26.5859 29.7676C27.1026 29.7212 27.6373 29.2465 27.9062 27.8311C28.5468 24.4857 29.8076 17.2378 30.0977 14.251C30.1248 13.9897 30.0916 13.655 30.0674 13.5078C30.0402 13.3607 29.9853 13.151 29.792 12.9961C29.5595 12.8125 29.2032 12.7739 29.043 12.7764Z" fill="#0088CC"/>
</svg>
