<svg width="50" height="13" viewBox="0 0 50 13" fill="none" xmlns="http://www.w3.org/2000/svg">
<path d="M2.02 10.17L3.09 6.99L0.51 5.26H3.67L4.8 1.85L5.95 5.26H9.09L6.51 6.99L7.6 10.17L4.8 8.14L2.02 10.17Z" fill="#EEC214"/>
<path d="M12.02 10.17L13.09 6.99L10.51 5.26H13.67L14.8 1.85L15.95 5.26H19.09L16.51 6.99L17.6 10.17L14.8 8.14L12.02 10.17Z" fill="#EEC214"/>
<path d="M22.02 10.17L23.09 6.99L20.51 5.26H23.67L24.8 1.85L25.95 5.26H29.09L26.51 6.99L27.6 10.17L24.8 8.14L22.02 10.17Z" fill="#EEC214"/>
<path d="M32.02 10.17L33.09 6.99L30.51 5.26H33.67L34.8 1.85L35.95 5.26H39.09L36.51 6.99L37.6 10.17L34.8 8.14L32.02 10.17Z" fill="#EEC214"/>
<path d="M42.02 10.17L43.09 6.99L40.51 5.26H43.67L44.8 1.85L45.95 5.26H49.09L46.51 6.99L47.6 10.17L44.8 8.14L42.02 10.17Z" fill="#EEC214"/>
</svg>
