<svg width="66" height="14" viewBox="0 0 66 14" fill="none" xmlns="http://www.w3.org/2000/svg">
<path d="M20.6109 2.10263C20.49 1.69619 20.2542 1.32565 19.9269 1.02793C19.5996 0.730206 19.1923 0.51569 18.7455 0.40575C17.1098 0 10.5273 0 10.5273 0C10.5273 0 3.94453 0.0123132 2.30909 0.418063C1.86233 0.528022 1.45503 0.742545 1.12776 1.04027C0.800496 1.33799 0.564683 1.70851 0.443812 2.11494C-0.0509323 4.75876 -0.242874 8.78706 0.457347 11.325C0.578218 11.7314 0.814031 12.1019 1.1413 12.3997C1.46856 12.6974 1.87586 12.9119 2.32263 13.0219C3.9582 13.4276 10.5408 13.4276 10.5408 13.4276C10.5408 13.4276 17.1234 13.4276 18.759 13.0219C19.2058 12.9119 19.6131 12.6974 19.9403 12.3997C20.2676 12.1019 20.5034 11.7314 20.6243 11.325C21.146 8.67753 21.3069 4.6517 20.6108 2.10275" fill="#F33030"/>
<path d="M8.43164 9.59066L13.8924 6.71336L8.43164 3.83594V9.59066Z" fill="white"/>
<path d="M63.3241 3.89854C64.0404 3.89854 64.581 4.02144 64.9595 4.25504C65.338 4.48872 65.6083 4.85765 65.7706 5.36182C65.9327 5.86596 66.0003 6.55445 66.0003 7.43982V8.87859H62.5265V9.32117L62.5807 10.5385C62.6211 10.8091 62.6888 11.0058 62.7968 11.1287C62.9051 11.2518 63.0807 11.3132 63.3105 11.3132C63.6214 11.3132 63.8378 11.2026 63.9458 10.9813C64.0675 10.7599 64.1215 10.391 64.135 9.88687L65.9327 9.98526C65.9463 10.059 65.9463 10.1574 65.9463 10.2803C65.9463 11.055 65.7164 11.633 65.2434 12.0141C64.7703 12.3952 64.1215 12.592 63.2699 12.592C62.2427 12.592 61.5263 12.297 61.1208 11.7191C60.7154 11.1411 60.4991 10.2311 60.4991 9.0138V7.5259C60.545 5.43558 60.9491 3.90464 63.3241 3.89854ZM38.3316 4.05838V10.2189C38.3316 10.5878 38.3721 10.8583 38.4667 11.0182C38.6587 11.36 39.1561 11.2726 39.4264 11.1042C39.5824 11.0082 39.7082 10.8769 39.7914 10.7231V4.05826H41.8594V12.4567H40.2374L40.0617 11.4238H40.0212C39.5752 12.1985 38.9127 12.5919 38.0342 12.5919C36.682 12.5889 36.3511 11.7025 36.2723 10.8024L36.2672 10.7389C36.2574 10.6026 36.2517 10.4661 36.25 10.3294V4.05838H38.3316ZM48.9963 4.05838V10.2189C48.9963 10.5878 49.0368 10.8583 49.1314 11.0182C49.3235 11.36 49.8208 11.2726 50.0911 11.1042C50.2472 11.0082 50.3729 10.8769 50.4561 10.7231V4.05826H52.5241V12.4567H50.9021L50.7264 11.4238H50.6859C50.2399 12.1985 49.5774 12.5919 48.6989 12.5919C47.3467 12.5889 47.0158 11.7025 46.937 10.8024L46.9319 10.7389C46.9221 10.6026 46.9164 10.4661 46.9147 10.3294V4.05838H48.9963ZM32.3301 3.89854C33.006 3.89854 33.5601 4.02144 33.9657 4.27967C34.3711 4.53789 34.682 4.93145 34.8712 5.47241C35.0605 6.01348 35.1551 6.73891 35.1551 7.6366V8.85385C35.1551 9.75154 35.0605 10.4648 34.8712 11.0057C34.682 11.5469 34.3846 11.9404 33.9657 12.1986C33.5467 12.4445 32.9789 12.5797 32.2761 12.5797C31.5461 12.592 30.9784 12.4568 30.5594 12.2109C30.1405 11.9527 29.843 11.5591 29.6674 11.0182C29.4916 10.4771 29.4105 9.76385 29.4105 8.86628V7.6488C29.4105 6.75111 29.5051 6.01337 29.7079 5.47229C29.9107 4.91902 30.2215 4.52546 30.6541 4.27967C31.0865 4.03364 31.6407 3.89843 32.3301 3.89843M55.7682 0.529297V4.95596H55.7817C55.971 4.63628 56.2142 4.37806 56.5522 4.18128C56.8678 3.98832 57.2397 3.88557 57.6199 3.88623C58.1201 3.88623 58.4986 4.00913 58.7824 4.24273C59.0663 4.48876 59.269 4.86988 59.3906 5.39865C59.5085 5.91087 59.5756 6.61929 59.5797 7.51265L59.5798 7.59978V8.92773C59.5798 10.1696 59.4041 11.0919 59.0797 11.6821C58.7419 12.2723 58.2282 12.5675 57.5253 12.5675C57.1334 12.5675 56.7819 12.4814 56.4576 12.3216C56.1708 12.1694 55.933 11.9514 55.7679 11.6893L55.7411 11.6452H55.7006L55.4843 12.4445H53.7677V0.529414L55.7682 0.529297ZM47.4959 0.959673V2.48428H45.4413V12.4567H43.4139V2.4844H41.3458V0.95979L47.4959 0.959673ZM25.2067 0.959673L25.208 0.964364C25.2277 1.04422 25.501 2.14948 25.8016 3.43721L25.8253 3.53923L25.8612 3.69344L25.8852 3.79699L25.8971 3.84894L25.9211 3.95307L25.9331 4.00526L25.957 4.10974L25.9918 4.26255C26.1948 5.15426 26.3885 6.04855 26.5044 6.68977H26.5586C26.6696 6.11457 26.8308 5.37847 27.0028 4.6269L27.0479 4.43059C27.0705 4.33224 27.0933 4.23405 27.1162 4.13601L27.1515 3.98392C27.385 2.98793 27.6256 1.99332 27.873 1.00013L27.8769 0.984299L27.8831 0.959673H29.9511L27.5586 8.71876V12.4445H25.5176V8.73095H25.5041L23.1387 0.959556L25.2067 0.959673ZM32.2895 5.20187C32.0057 5.20187 31.8164 5.3372 31.6949 5.62005C31.5733 5.9029 31.5192 6.33316 31.5192 6.9358V9.55488C31.5192 10.1697 31.5732 10.6246 31.6813 10.8953C31.7895 11.1658 31.9922 11.301 32.2895 11.301C32.5734 11.301 32.7761 11.1658 32.8978 10.8953C33.0195 10.6246 33.0735 10.1697 33.0735 9.55488V6.93569C33.0735 6.33316 33.0194 5.89047 32.8978 5.61993C32.7761 5.3372 32.5734 5.20187 32.2895 5.20187ZM56.1331 5.4479C55.9684 5.58628 55.8512 5.7569 55.7815 5.97021L55.7682 6.01348V10.7844C55.9358 11.0427 56.1737 11.2148 56.5927 11.2271C56.8089 11.2271 56.9846 11.1534 57.1199 11.0058C57.255 10.8583 57.3496 10.6124 57.4036 10.268C57.4556 9.93753 57.4826 9.48237 57.4847 8.90252V7.73499C57.4847 7.07101 57.4576 6.56688 57.4172 6.21026C57.363 5.85365 57.2956 5.59542 57.1739 5.4479C56.9387 5.14042 56.4305 5.14417 56.1331 5.4479ZM63.2836 5.16505C63.0537 5.17732 62.8915 5.23881 62.7968 5.34951C62.6888 5.47241 62.6211 5.65687 62.5807 5.92741C62.5408 6.19244 62.5272 7.11886 62.5265 7.15592V7.75962H64.0404V7.22722V7.23742C64.0395 7.42352 64.0352 7.12941 64.026 6.76834L64.0247 6.71979C64.0162 6.40247 64.0038 6.04867 63.9864 5.92741C63.9458 5.64456 63.8781 5.44778 63.7701 5.3372C63.6619 5.22649 63.4998 5.16505 63.2835 5.16505" fill="white"/>
</svg>
