<svg width="40" height="40" viewBox="0 0 40 40" fill="none" xmlns="http://www.w3.org/2000/svg">
<g clip-path="url(#clip0_1268_7125)">
<path d="M20.0547 0C27.959 5.58896e-06 32.6005 0.805526 35.8496 3.95898C39.1806 7.35827 39.9453 11.959 39.9453 19.8633V20.082C39.9453 27.9864 39.1806 32.628 35.8496 35.9863C32.5868 39.1398 27.9863 39.9453 20.0547 39.9453H19.8906C11.959 39.9453 7.33117 39.1535 4.0957 35.9863C0.764662 32.587 7.77605e-06 27.9864 0 20.082V19.8633C1.28032e-05 11.959 0.764673 7.33097 4.0957 3.95898C7.35847 0.805504 11.9591 1.07056e-05 19.8906 0H20.0547ZM19.6592 4.76465C19.509 4.76465 19.3857 4.88792 19.3721 5.03809C19.1673 10.5122 18.4711 13.8433 16.1367 16.1641C13.816 18.4848 10.4849 19.1809 5.02441 19.3857C4.87424 19.3857 4.75098 19.5227 4.75098 19.6729V20.3145C4.75115 20.4645 4.87435 20.5869 5.02441 20.6006C10.4848 20.8054 13.8023 21.5016 16.1367 23.8223C18.4712 26.1431 19.1536 29.4611 19.3584 34.9219C19.3585 35.0719 19.4954 35.1943 19.6455 35.1943H20.2871C20.4371 35.1942 20.5595 35.0718 20.5732 34.9219C20.778 29.4748 21.4741 26.1567 23.7949 23.8223C26.1157 21.5014 29.4475 20.8054 34.9082 20.6006C35.0582 20.6004 35.1805 20.4644 35.1807 20.3145L35.1943 19.6729C35.1943 19.5228 35.0719 19.3995 34.9219 19.3857C29.4611 19.181 26.1431 18.4849 23.8086 16.1641C21.4743 13.8297 20.778 10.5121 20.5732 5.03809C20.5732 4.88801 20.4372 4.76481 20.2871 4.76465H19.6592Z" fill="#F9FBFF"/>
</g>
<defs>
<clipPath id="clip0_1268_7125">
<rect width="40" height="40" fill="white"/>
</clipPath>
</defs>
</svg>
