<svg width="40" height="40" viewBox="0 0 40 40" fill="none" xmlns="http://www.w3.org/2000/svg">
<path d="M26.146 0H13.876C2.664 0 0 2.666 0 13.854V26.126C0 37.334 2.646 40 13.854 40H26.126C37.334 40 40 37.354 40 26.146V13.876C40 2.664 37.354 0 26.146 0ZM32.292 28.54H29.374C28.27 28.54 27.938 27.646 25.958 25.666C24.23 24 23.5 23.792 23.062 23.792C22.458 23.792 22.292 23.958 22.292 24.792V27.416C22.292 28.126 22.062 28.542 20.208 28.542C18.409 28.4198 16.6647 27.8726 15.1182 26.9454C13.5718 26.0181 12.2673 24.7373 11.312 23.208C9.0447 20.389 7.46806 17.0789 6.708 13.542C6.708 13.104 6.874 12.708 7.708 12.708H10.626C11.376 12.708 11.646 13.042 11.938 13.812C13.354 17.98 15.77 21.604 16.75 21.604C17.126 21.604 17.29 21.438 17.29 20.5V16.208C17.166 14.25 16.126 14.084 16.126 13.376C16.1394 13.1893 16.2249 13.0151 16.3646 12.8904C16.5042 12.7657 16.6869 12.7002 16.874 12.708H21.458C22.084 12.708 22.292 13.02 22.292 13.77V19.562C22.292 20.188 22.562 20.396 22.75 20.396C23.126 20.396 23.416 20.188 24.104 19.5C25.5817 17.6979 26.789 15.6901 27.688 13.54C27.7805 13.2821 27.9544 13.0614 28.1836 12.9112C28.4128 12.7611 28.6846 12.6898 28.958 12.708H31.876C32.75 12.708 32.936 13.146 32.75 13.77C31.6891 16.1469 30.3762 18.4031 28.834 20.5C28.52 20.98 28.394 21.23 28.834 21.792C29.124 22.23 30.146 23.084 30.834 23.896C31.8334 24.8936 32.6636 26.0474 33.292 27.312C33.542 28.124 33.124 28.54 32.292 28.54Z" fill="#F9FBFF"/>
</svg>
