<svg width="40" height="40" viewBox="0 0 40 40" fill="none" xmlns="http://www.w3.org/2000/svg">
<g clip-path="url(#clip0_1449_1885)">
<path d="M37.8789 33.074L33.0742 37.8788L27.9483 32.7529L30.4232 25.6183L37.8789 33.074ZM7.19227 7.19213C12.269 2.11537 20.5002 2.11547 25.577 7.19213C30.6539 12.2689 30.6539 20.5001 25.577 25.5769C20.5002 30.6537 12.2691 30.6537 7.19227 25.5769C2.1156 20.5001 2.1155 12.2689 7.19227 7.19213ZM11.4349 11.4348C8.70129 14.1684 8.70139 18.6006 11.4349 21.3343C14.1686 24.0679 18.6007 24.0679 21.3344 21.3343C24.0681 18.6006 24.0681 14.1684 21.3344 11.4348C18.6007 8.70126 14.1685 8.70116 11.4349 11.4348Z" fill="#EE1414"/>
</g>
<defs>
<clipPath id="clip0_1449_1885">
<rect width="40" height="40" fill="white"/>
</clipPath>
</defs>
</svg>
